# Blender v2.93.0 OBJ File: ''
# www.blender.org
mtllib tree1.mtl
o Cylinder
v 0.000000 0.000000 -0.250000
v 0.177824 1.498318 0.020460
v 0.176777 0.000000 -0.176777
v 0.273644 1.459767 0.128752
v 0.250000 0.000000 0.000000
v 0.285771 1.485266 0.263161
v 0.176777 0.000000 0.176777
v 0.208881 1.444935 0.373666
v -0.000000 0.000000 0.250000
v 0.069104 1.434007 0.373463
v -0.176777 0.000000 0.176777
v -0.029848 1.444274 0.282806
v -0.250000 0.000000 -0.000000
v -0.039677 1.511505 0.125142
v -0.176777 0.000000 -0.176777
v 0.033458 1.549810 0.014683
v 0.172167 3.024224 -0.222444
v 0.273574 3.014071 -0.122286
v 0.304949 3.007833 0.017635
v 0.253168 3.009810 0.108010
v 0.128494 3.016521 0.136078
v 0.018326 3.025756 0.061672
v -0.018161 3.031216 -0.084092
v 0.054525 3.031680 -0.214327
vt 1.000000 0.500000
vt 1.000000 1.000000
vt 0.875000 1.000000
vt 0.875000 0.500000
vt 0.750000 1.000000
vt 0.750000 0.500000
vt 0.625000 1.000000
vt 0.625000 0.500000
vt 0.500000 1.000000
vt 0.500000 0.500000
vt 0.375000 1.000000
vt 0.375000 0.500000
vt 0.250000 1.000000
vt 0.250000 0.500000
vt 0.419706 0.419706
vt 0.250000 0.490000
vt 0.080294 0.419706
vt 0.010000 0.250000
vt 0.080294 0.080294
vt 0.250000 0.010000
vt 0.419706 0.080294
vt 0.490000 0.250000
vt 0.125000 1.000000
vt 0.125000 0.500000
vt 0.000000 1.000000
vt 0.000000 0.500000
vt 0.750000 0.490000
vt 0.919706 0.419706
vt 0.990000 0.250000
vt 0.919706 0.080294
vt 0.750000 0.010000
vt 0.580294 0.080294
vt 0.510000 0.250000
vt 0.580294 0.419706
vt 1.000000 0.500000
vt 1.000000 1.000000
vt 0.875000 1.000000
vt 0.875000 0.500000
vt 0.750000 1.000000
vt 0.750000 0.500000
vt 0.625000 1.000000
vt 0.625000 0.500000
vt 0.500000 1.000000
vt 0.500000 0.500000
vt 0.375000 1.000000
vt 0.375000 0.500000
vt 0.250000 1.000000
vt 0.250000 0.500000
vt 0.419706 0.419706
vt 0.250000 0.490000
vt 0.080294 0.419706
vt 0.010000 0.250000
vt 0.080294 0.080294
vt 0.250000 0.010000
vt 0.419706 0.080294
vt 0.490000 0.250000
vt 0.125000 1.000000
vt 0.125000 0.500000
vt 0.000000 1.000000
vt 0.000000 0.500000
vn 0.5615 0.1076 -0.8204
vn 0.9642 0.0078 -0.2651
vn 0.8878 -0.0914 0.4511
vn 0.2271 -0.1156 0.9670
vn -0.5115 -0.0301 0.8587
vn -0.9614 0.0960 0.2580
vn 0.0421 0.9756 0.2155
vn -0.8874 0.1664 -0.4300
vn -0.1765 0.1694 -0.9696
vn 0.0000 -1.0000 0.0000
vn 0.7089 -0.1104 -0.6966
vn 0.9875 -0.0311 -0.1544
vn 0.8333 0.0736 0.5478
vn 0.1011 0.1538 0.9829
vn -0.6062 0.1342 0.7839
vn -0.9859 0.0445 0.1612
vn 0.0640 0.9975 0.0282
vn -0.8489 -0.0646 -0.5247
vn -0.0436 -0.1546 -0.9870
usemtl tree_trunk1
s off
f 1/1/1 2/2/1 4/3/1 3/4/1
f 3/4/2 4/3/2 6/5/2 5/6/2
f 5/6/3 6/5/3 8/7/3 7/8/3
f 7/8/4 8/7/4 10/9/4 9/10/4
f 9/10/5 10/9/5 12/11/5 11/12/5
f 11/12/6 12/11/6 14/13/6 13/14/6
f 4/15/7 2/16/7 16/17/7 14/18/7 12/19/7 10/20/7 8/21/7 6/22/7
f 13/14/8 14/13/8 16/23/8 15/24/8
f 15/24/9 16/23/9 2/25/9 1/26/9
f 1/27/10 3/28/10 5/29/10 7/30/10 9/31/10 11/32/10 13/33/10 15/34/10
f 2/35/11 17/36/11 18/37/11 4/38/11
f 4/38/12 18/37/12 19/39/12 6/40/12
f 6/40/13 19/39/13 20/41/13 8/42/13
f 8/42/14 20/41/14 21/43/14 10/44/14
f 10/44/15 21/43/15 22/45/15 12/46/15
f 12/46/16 22/45/16 23/47/16 14/48/16
f 18/49/17 17/50/17 24/51/17 23/52/17 22/53/17 21/54/17 20/55/17 19/56/17
f 14/48/18 23/47/18 24/57/18 16/58/18
f 16/58/19 24/57/19 17/59/19 2/60/19
o Cube_Cube.001
v -0.962290 2.674327 1.133593
v -1.467000 3.131682 1.221260
v -0.877650 2.700327 -2.088504
v -1.378369 3.008541 -1.964344
v 0.843416 2.378586 1.553569
v 0.574086 2.677917 1.271210
v 0.975194 2.906473 -1.043097
v 0.591752 3.450525 -1.937011
vt 0.375000 0.000000
vt 0.625000 0.000000
vt 0.625000 0.250000
vt 0.375000 0.250000
vt 0.625000 0.500000
vt 0.375000 0.500000
vt 0.625000 0.750000
vt 0.375000 0.750000
vt 0.625000 1.000000
vt 0.375000 1.000000
vt 0.125000 0.500000
vt 0.125000 0.750000
vt 0.875000 0.500000
vt 0.875000 0.750000
vn -0.6064 -0.7952 -0.0043
vn 0.3110 -0.4388 -0.8430
vn 0.6361 0.7493 0.1842
vn -0.0884 0.1624 0.9828
vn 0.0134 -0.9955 -0.0943
vn 0.0010 0.9949 0.1011
usemtl Material.001
s off
f 25/61/20 26/62/20 28/63/20 27/64/20
f 27/64/21 28/63/21 32/65/21 31/66/21
f 31/66/22 32/65/22 30/67/22 29/68/22
f 29/68/23 30/67/23 26/69/23 25/70/23
f 27/71/24 31/66/24 29/68/24 25/72/24
f 32/65/25 28/73/25 26/74/25 30/67/25
